<mxfile host="app.diagrams.net" modified="2021-01-07T03:45:59.595Z" agent="5.0 (Windows NT 10.0; WOW64) AppleWebKit/537.36 (KHTML, like Gecko) Chrome/70.0.3538.25 Safari/537.36 Core/1.70.3741.400 QQBrowser/10.5.3863.400" etag="EsyvuDtpTLKzh9VdhtAH" version="13.10.4" type="github">
  <diagram id="JDSTF8mJkUm4NOLs0V7h" name="Page-1">
    <mxGraphModel dx="1136" dy="648" grid="1" gridSize="10" guides="1" tooltips="1" connect="1" arrows="1" fold="1" page="1" pageScale="1" pageWidth="827" pageHeight="1169" math="0" shadow="0">
      <root>
        <mxCell id="0" />
        <mxCell id="1" parent="0" />
        <mxCell id="PRt08DVxKbQnimSQGQUW-1" value="Title" style="text;strokeColor=none;fillColor=none;html=1;fontSize=24;fontStyle=1;verticalAlign=middle;align=center;" parent="1" vertex="1">
          <mxGeometry x="360" y="310" width="100" height="40" as="geometry" />
        </mxCell>
        <mxCell id="PRt08DVxKbQnimSQGQUW-2" value="" style="shape=image;html=1;verticalLabelPosition=bottom;verticalAlign=top;imageAspect=1;aspect=fixed;image=img/clipart/Gear_128x128.png" parent="1" vertex="1">
          <mxGeometry x="390" y="300" width="52" height="61" as="geometry" />
        </mxCell>
        <mxCell id="PRt08DVxKbQnimSQGQUW-3" value="" style="shape=image;html=1;verticalLabelPosition=bottom;verticalAlign=top;imageAspect=0;image=img/clipart/Gear_128x128.png" parent="1" vertex="1">
          <mxGeometry x="390" y="300" width="50" height="60" as="geometry" />
        </mxCell>
        <mxCell id="PRt08DVxKbQnimSQGQUW-4" value="List" style="swimlane;fontStyle=0;childLayout=stackLayout;horizontal=1;startSize=26;fillColor=none;horizontalStack=0;resizeParent=1;resizeParentMax=0;resizeLast=0;collapsible=1;marginBottom=0;" parent="1" vertex="1">
          <mxGeometry x="340" y="280" width="140" height="104" as="geometry" />
        </mxCell>
        <mxCell id="PRt08DVxKbQnimSQGQUW-5" value="Item 1" style="text;strokeColor=none;fillColor=none;align=left;verticalAlign=top;spacingLeft=4;spacingRight=4;overflow=hidden;rotatable=0;points=[[0,0.5],[1,0.5]];portConstraint=eastwest;" parent="PRt08DVxKbQnimSQGQUW-4" vertex="1">
          <mxGeometry y="26" width="140" height="26" as="geometry" />
        </mxCell>
        <mxCell id="PRt08DVxKbQnimSQGQUW-6" value="Item 2" style="text;strokeColor=none;fillColor=none;align=left;verticalAlign=top;spacingLeft=4;spacingRight=4;overflow=hidden;rotatable=0;points=[[0,0.5],[1,0.5]];portConstraint=eastwest;" parent="PRt08DVxKbQnimSQGQUW-4" vertex="1">
          <mxGeometry y="52" width="140" height="26" as="geometry" />
        </mxCell>
        <mxCell id="PRt08DVxKbQnimSQGQUW-7" value="Item 3" style="text;strokeColor=none;fillColor=none;align=left;verticalAlign=top;spacingLeft=4;spacingRight=4;overflow=hidden;rotatable=0;points=[[0,0.5],[1,0.5]];portConstraint=eastwest;" parent="PRt08DVxKbQnimSQGQUW-4" vertex="1">
          <mxGeometry y="78" width="140" height="26" as="geometry" />
        </mxCell>
        <mxCell id="PRt08DVxKbQnimSQGQUW-8" value="Pool" style="swimlane;html=1;childLayout=stackLayout;resizeParent=1;resizeParentMax=0;horizontal=1;startSize=20;horizontalStack=0;" parent="1" vertex="1">
          <mxGeometry x="170" y="140" width="480" height="380" as="geometry" />
        </mxCell>
        <mxCell id="PRt08DVxKbQnimSQGQUW-9" value="Lane 1" style="swimlane;html=1;startSize=20;horizontal=0;" parent="PRt08DVxKbQnimSQGQUW-8" vertex="1">
          <mxGeometry y="20" width="480" height="120" as="geometry" />
        </mxCell>
        <mxCell id="PRt08DVxKbQnimSQGQUW-10" value="Lane 2" style="swimlane;html=1;startSize=20;horizontal=0;" parent="PRt08DVxKbQnimSQGQUW-8" vertex="1">
          <mxGeometry y="140" width="480" height="120" as="geometry" />
        </mxCell>
        <mxCell id="PRt08DVxKbQnimSQGQUW-11" value="Lane 3" style="swimlane;html=1;startSize=20;horizontal=0;" parent="PRt08DVxKbQnimSQGQUW-8" vertex="1">
          <mxGeometry y="260" width="480" height="120" as="geometry" />
        </mxCell>
        <mxCell id="PRt08DVxKbQnimSQGQUW-12" value="Vertical Tree Layout" style="swimlane;html=1;startSize=20;horizontal=1;childLayout=treeLayout;horizontalTree=0;resizable=0;containerType=tree;" parent="1" vertex="1">
          <mxGeometry x="270" y="240" width="280" height="190" as="geometry" />
        </mxCell>
        <mxCell id="PRt08DVxKbQnimSQGQUW-13" value="Root" style="whiteSpace=wrap;html=1;" parent="PRt08DVxKbQnimSQGQUW-12" vertex="1">
          <mxGeometry x="90" y="40" width="100" height="40" as="geometry" />
        </mxCell>
        <mxCell id="PRt08DVxKbQnimSQGQUW-14" value="Child 1" style="whiteSpace=wrap;html=1;" parent="PRt08DVxKbQnimSQGQUW-12" vertex="1">
          <mxGeometry x="20" y="130" width="100" height="40" as="geometry" />
        </mxCell>
        <mxCell id="PRt08DVxKbQnimSQGQUW-15" value="" style="edgeStyle=elbowEdgeStyle;elbow=vertical;html=1;rounded=0;" parent="PRt08DVxKbQnimSQGQUW-12" source="PRt08DVxKbQnimSQGQUW-13" target="PRt08DVxKbQnimSQGQUW-14" edge="1">
          <mxGeometry relative="1" as="geometry" />
        </mxCell>
        <mxCell id="PRt08DVxKbQnimSQGQUW-16" value="Child 2" style="whiteSpace=wrap;html=1;" parent="PRt08DVxKbQnimSQGQUW-12" vertex="1">
          <mxGeometry x="160" y="130" width="100" height="40" as="geometry" />
        </mxCell>
        <mxCell id="PRt08DVxKbQnimSQGQUW-17" value="" style="edgeStyle=elbowEdgeStyle;elbow=vertical;html=1;rounded=0;" parent="PRt08DVxKbQnimSQGQUW-12" source="PRt08DVxKbQnimSQGQUW-13" target="PRt08DVxKbQnimSQGQUW-16" edge="1">
          <mxGeometry relative="1" as="geometry" />
        </mxCell>
        <mxCell id="PRt08DVxKbQnimSQGQUW-18" value="Pool" style="swimlane;html=1;childLayout=stackLayout;resizeParent=1;resizeParentMax=0;startSize=20;horizontal=0;horizontalStack=1;" parent="1" vertex="1">
          <mxGeometry x="220" y="90" width="380" height="480" as="geometry" />
        </mxCell>
        <mxCell id="PRt08DVxKbQnimSQGQUW-19" value="Lane 1" style="swimlane;html=1;startSize=20;" parent="PRt08DVxKbQnimSQGQUW-18" vertex="1">
          <mxGeometry x="20" width="120" height="480" as="geometry" />
        </mxCell>
        <mxCell id="PRt08DVxKbQnimSQGQUW-20" value="Lane 2" style="swimlane;html=1;startSize=20;" parent="PRt08DVxKbQnimSQGQUW-18" vertex="1">
          <mxGeometry x="140" width="120" height="480" as="geometry" />
        </mxCell>
        <mxCell id="PRt08DVxKbQnimSQGQUW-21" value="Lane 3" style="swimlane;html=1;startSize=20;" parent="PRt08DVxKbQnimSQGQUW-18" vertex="1">
          <mxGeometry x="260" width="120" height="480" as="geometry" />
        </mxCell>
        <mxCell id="PRt08DVxKbQnimSQGQUW-22" value="Entity" style="swimlane;childLayout=stackLayout;horizontal=1;startSize=30;horizontalStack=0;rounded=1;fontSize=14;fontStyle=0;strokeWidth=2;resizeParent=0;resizeLast=1;shadow=0;dashed=0;align=center;" parent="1" vertex="1">
          <mxGeometry x="330" y="270" width="160" height="120" as="geometry" />
        </mxCell>
        <mxCell id="PRt08DVxKbQnimSQGQUW-23" value="+Attribute1&#xa;+Attribute2&#xa;+Attribute3" style="align=left;strokeColor=none;fillColor=none;spacingLeft=4;fontSize=12;verticalAlign=top;resizable=0;rotatable=0;part=1;" parent="PRt08DVxKbQnimSQGQUW-22" vertex="1">
          <mxGeometry y="30" width="160" height="90" as="geometry" />
        </mxCell>
        <mxCell id="PRt08DVxKbQnimSQGQUW-24" value="" style="shape=mxgraph.bpmn.user_task;html=1;outlineConnect=0;" parent="1" vertex="1">
          <mxGeometry x="410" y="330" width="14" height="14" as="geometry" />
        </mxCell>
        <mxCell id="PRt08DVxKbQnimSQGQUW-25" value="" style="shape=mxgraph.bpmn.manual_task;html=1;outlineConnect=0;" parent="1" vertex="1">
          <mxGeometry x="410" y="330" width="14" height="14" as="geometry" />
        </mxCell>
      </root>
    </mxGraphModel>
  </diagram>
</mxfile>
